PathFileType	4	(X/Y/Z)	C:/Users/opensim2020/Desktop/walking_exp_matlab/subject03_walking11_straight_01.trc	
DataRate	CameraRate	NumFrames	NumMarkers	Units	OrigDataRate	OrigDataStartFrame	OrigNumFrames	
100.00	100.00	6	46	mm	100.00	861	454	
Frame#	Time	LFHD			RFHD			LBHD			RBHD			C7			T10			CLAV			STRN			RBAK			LSHO			LUPA			LELB			LFRM			LWRA			LWRB			LFIN			RSHO			RUPA			RELB			RFRM			RWRA			RWRB			RFIN			LASI			RASI			LPSI			RPSI			LTHI			LKNE			LTIB			LANK			LHEE			LTOE			RTHI			RKNE			RTIB			RANK			RHEE			RTOE			*39			*40			*41			*42			*43			*44			*45			
		X1	Y1	Z1	X2	Y2	Z2	X3	Y3	Z3	X4	Y4	Z4	X5	Y5	Z5	X6	Y6	Z6	X7	Y7	Z7	X8	Y8	Z8	X9	Y9	Z9	X10	Y10	Z10	X11	Y11	Z11	X12	Y12	Z12	X13	Y13	Z13	X14	Y14	Z14	X15	Y15	Z15	X16	Y16	Z16	X17	Y17	Z17	X18	Y18	Z18	X19	Y19	Z19	X20	Y20	Z20	X21	Y21	Z21	X22	Y22	Z22	X23	Y23	Z23	X24	Y24	Z24	X25	Y25	Z25	X26	Y26	Z26	X27	Y27	Z27	X28	Y28	Z28	X29	Y29	Z29	X30	Y30	Z30	X31	Y31	Z31	X32	Y32	Z32	X33	Y33	Z33	X34	Y34	Z34	X35	Y35	Z35	X36	Y36	Z36	X37	Y37	Z37	X38	Y38	Z38	X39	Y39	Z39	X40	Y40	Z40	X41	Y41	Z41	X42	Y42	Z42	X43	Y43	Z43	X44	Y44	Z44	X45	Y45	Z45	X46	Y46	Z46	

228	2.270	1367.01062	-62.41505	1613.43994	1500.47485	-60.89423	1620.85742	1375.87891	-189.93710	1567.84021	1506.54858	-183.24657	1575.26660	1442.45874	-217.15363	1414.27185	1444.87695	-266.00937	1103.73840	1433.02686	-99.09678	1332.48328	1430.67188	-65.18301	1165.01099	1547.56409	-271.25119	1246.17273	1280.64417	-159.14505	1369.89111	1218.47351	-211.98604	1176.09216	1206.90295	-228.93192	1053.61658	1203.99414	-209.40225	925.18439	1231.78748	-184.51317	808.32318	1190.05615	-221.79611	812.12872	1197.98364	-204.39865	729.53583	1594.73853	-128.48801	1361.91431	1671.91357	-90.96837	1147.46033	1681.32654	-48.90501	1042.46204	1673.09802	3.71671	916.16016	1625.53003	48.33287	832.60126	1675.93909	33.08600	820.69867	1657.66162	73.80109	761.02740	1326.36560	-102.37417	934.95282	1563.43848	-105.44889	934.24097	1371.69971	-266.45908	953.80200	1521.35864	-266.06424	968.21643	1275.77356	-100.34907	633.80249	1320.95105	-36.51645	470.09271	1315.75696	-27.09305	280.17029	1346.80957	27.75317	74.99281	1387.47559	-1.30396	33.45830	1364.13159	181.34021	66.05177	1595.95447	-195.65758	644.51886	1558.04468	-212.44083	465.45264	1555.98645	-299.10736	291.90784	1499.93237	-370.00146	87.07288	1447.54175	-417.32278	62.88339	1484.37817	-232.94867	36.26088	1418.03088	-146.91690	1672.50696																		 
229	2.280	1366.37402	-55.39199	1612.92297	1499.80396	-53.97580	1620.50989	1375.02197	-182.87474	1567.52490	1505.76563	-176.38539	1575.03931	1441.59265	-210.19832	1413.93982	1443.70886	-258.80264	1103.26196	1432.55859	-91.94373	1332.13525	1430.69885	-57.81854	1165.02478	1546.59119	-264.47968	1245.78577	1279.92700	-151.65442	1369.35986	1217.49194	-204.16391	1175.40137	1206.38184	-221.06789	1052.84741	1203.61792	-201.66768	924.42267	1231.51587	-177.19731	807.46265	1189.67834	-214.37672	811.39063	1197.88428	-197.34221	728.71692	1594.11047	-121.94823	1361.69336	1671.04968	-84.50826	1147.07239	1680.40149	-42.50904	1042.06519	1672.01514	10.08081	915.70667	1624.46204	54.60044	832.21741	1674.82129	39.39996	820.27490	1656.41150	79.96847	760.47058	1326.27380	-94.54868	934.38336	1563.24634	-98.99487	933.90009	1370.42285	-258.68930	953.44476	1520.10291	-259.35629	967.76208	1276.31897	-93.25462	633.08026	1321.66467	-30.17448	469.44626	1315.96521	-20.58024	279.43793	1347.02979	34.13681	74.15057	1387.09961	4.67085	32.54423	1365.33533	187.57944	65.75283	1595.79980	-190.39467	644.36432	1558.35242	-207.76015	465.27151	1556.11731	-296.28406	292.53378	1500.23914	-369.35315	88.28326	1447.85632	-416.88437	64.68810	1484.55701	-232.74809	36.20546	1416.88135	-139.96658	1672.04492																		 
230	2.290	1365.12476	-48.33529	1612.40613	1499.08179	-47.03328	1620.21423	1374.18591	-175.83716	1567.21960	1504.92664	-169.50056	1574.82349	1440.61658	-203.14281	1413.45593	1442.60718	-251.63269	1102.91797	1432.09961	-84.72777	1331.93738	1430.45032	-50.49429	1164.72437	1545.51868	-257.61917	1245.46509	1279.19824	-143.99362	1368.96484	1216.95190	-195.83838	1174.76648	1205.61365	-212.53461	1052.37463	1203.11792	-193.66054	923.64825	1231.34937	-169.80182	806.87335	1189.13538	-206.62125	810.75922	1197.63953	-190.09154	727.94568	1593.44055	-115.35497	1361.49939	1670.22827	-77.96614	1146.85608	1679.48938	-36.11341	1041.71716	1671.09338	16.25084	915.29285	1623.33789	60.62600	831.60577	1673.82617	45.43714	819.79718	1655.24780	85.90742	759.86865	1326.09082	-86.47379	933.84009	1563.07092	-92.43188	933.52948	1369.24817	-250.82845	953.17651	1518.88562	-252.53029	967.38373	1276.33728	-85.33685	632.71704	1322.25232	-23.69197	468.52029	1316.14954	-14.81962	278.55136	1347.41589	38.93652	73.05603	1387.14844	9.01937	31.72979	1366.79358	192.10883	64.14296	1595.64221	-184.95375	644.14685	1558.65234	-202.77983	465.10114	1556.36829	-293.17044	293.12357	1500.55579	-368.60129	89.56750	1448.13403	-416.35434	66.62879	1484.74939	-232.54677	36.11823	1415.73145	-132.91797	1671.54126																		 
231	2.300	1364.36755	-41.18849	1612.09253	1498.33716	-40.07848	1619.93909	1373.26294	-168.65765	1566.96924	1504.02319	-162.53616	1574.66296	1439.48267	-195.96362	1413.01416	1441.35291	-244.11165	1102.39587	1431.53784	-77.45435	1331.70837	1430.13489	-42.96149	1164.54065	1544.36157	-250.76195	1245.08289	1278.35559	-136.16673	1368.55750	1215.84973	-187.67349	1174.25916	1204.95398	-204.04558	1051.74829	1202.63049	-185.48270	923.02789	1231.04065	-162.30066	805.98267	1188.54370	-198.73119	810.10803	1197.28931	-182.70146	727.21887	1592.73450	-108.65527	1361.31030	1669.37231	-71.46652	1146.57568	1678.54175	-29.93291	1041.30322	1670.17126	22.28018	914.83868	1622.55957	66.78448	831.37402	1672.85938	51.32265	819.25690	1654.27600	91.57729	759.15076	1325.98059	-78.13525	933.56232	1562.83765	-85.70241	933.10522	1368.07336	-242.77574	953.02466	1517.67334	-245.41168	967.00342	1276.64270	-77.23759	632.49579	1322.54272	-17.31775	467.68393	1316.42908	-9.80426	277.50119	1347.97363	42.13346	71.70071	1387.10132	11.13889	31.66947	1368.55249	194.85460	61.11639	1595.38293	-179.38083	643.96069	1558.93469	-197.63501	464.87827	1556.41821	-290.09711	293.78915	1500.83203	-367.84149	91.04291	1448.31299	-415.74963	68.63725	1484.93921	-232.31137	36.02309	1415.09485	-125.69342	1671.58752																		 
232	2.310	1363.65747	-33.92080	1611.84045	1497.59204	-33.17871	1619.74731	1372.32642	-161.47842	1566.75781	1503.08533	-155.61836	1574.54773	1438.33948	-188.96405	1412.80457	1440.17615	-236.51137	1101.95129	1430.77209	-70.14200	1331.42236	1429.78821	-35.38261	1164.39453	1543.13757	-243.86230	1244.70032	1277.51538	-128.20775	1368.19666	1215.00818	-179.05785	1173.80811	1204.10022	-195.17001	1051.25195	1201.95056	-177.06546	922.36566	1230.83911	-154.79149	805.19427	1187.82666	-190.69238	809.53735	1196.83337	-175.14284	726.54718	1591.94067	-102.02357	1361.16895	1668.37793	-65.20801	1146.24170	1677.68372	-23.84891	1040.94055	1669.35864	28.11854	914.32465	1621.67200	72.51592	830.58221	1672.05408	56.96450	818.68756	1653.38843	96.98432	758.39380	1325.76904	-69.60266	933.25476	1562.60315	-78.88088	932.73871	1366.88782	-234.54633	952.91132	1516.46411	-238.27159	966.64630	1277.08337	-68.84722	632.23010	1322.92126	-10.88235	466.92004	1316.95313	-5.62814	276.23859	1348.91541	43.87366	70.19426	1387.78137	11.69672	30.98244	1370.08618	196.10933	56.28810	1595.14795	-173.71318	643.76361	1559.13611	-192.35538	464.64294	1556.22986	-287.11343	294.59451	1501.00525	-366.95883	92.60940	1448.35474	-415.05365	70.84108	1485.09448	-232.11967	36.00169	1414.11462	-118.63362	1671.36084																		 
233	2.320	1362.96570	-26.70671	1611.62207	1496.79932	-26.23087	1619.65173	1371.32239	-154.27432	1566.57141	1502.11548	-148.71973	1574.41248	1437.07776	-181.74594	1412.37183	1438.84546	-228.71928	1101.53003	1430.20276	-62.66586	1331.28406	1429.45032	-27.64330	1164.32434	1541.66431	-236.60117	1244.27600	1276.55005	-120.18462	1367.91394	1214.02795	-170.07605	1173.33960	1203.25696	-186.37112	1050.59473	1201.26599	-168.50974	921.85443	1231.68359	-148.38690	803.81628	1187.06030	-182.34216	808.97791	1196.17297	-167.37862	725.91125	1591.13171	-95.33632	1361.08484	1667.46753	-58.83833	1146.01196	1676.80859	-17.83304	1040.53223	1668.56848	33.85435	913.79132	1621.08191	78.26218	830.16486	1671.26868	62.43938	818.03802	1652.69788	102.24310	757.55139	1325.60010	-61.07513	932.94312	1562.32935	-71.83141	932.28156	1365.53967	-226.24480	952.90912	1515.18164	-231.01566	966.39386	1277.42798	-60.20290	632.16486	1323.13562	-4.75631	466.06027	1317.70959	-1.85874	275.16360	1349.80286	45.16679	69.13800	1388.46948	11.78493	30.78565	1371.77490	196.91743	49.08940	1594.78625	-167.79298	643.55762	1559.33154	-186.76241	464.36856	1556.27905	-283.67844	295.35770	1501.18323	-365.99017	94.27126	1448.44714	-414.29660	73.33797	1485.21582	-232.02591	35.72063	1412.46582	-112.20352	1670.64148																		 
